<svg xmlns="http://www.w3.org/2000/svg" viewBox="0 0 29.39 33.37"><defs><style>.cls-1{fill:#fff;}</style></defs><g id="Layer_2" data-name="Layer 2"><g id="Layer_1-2" data-name="Layer 1"><g id="Group_56" data-name="Group 56"><g id="Group_53" data-name="Group 53"><g id="Group_52" data-name="Group 52"><path id="Path_42" data-name="Path 42" class="cls-1" d="M14.69,9.4A.71.71,0,0,1,14,8.69h0v-8A.71.71,0,0,1,14.69,0a.72.72,0,0,1,.4.12l5.94,4a.72.72,0,0,1,.19,1,.86.86,0,0,1-.19.19l-5.94,4A.72.72,0,0,1,14.69,9.4Zm.72-7.35v5.3L19.35,4.7Z"/></g></g><g id="Group_55" data-name="Group 55"><g id="Group_54" data-name="Group 54"><path id="Path_43" data-name="Path 43" class="cls-1" d="M14.69,33.37A14.69,14.69,0,0,1,14.69,4h0a.71.71,0,0,1,0,1.42A13.28,13.28,0,1,0,24.07,9.3a.73.73,0,0,1,0-1,.71.71,0,0,1,1,0A14.69,14.69,0,0,1,14.69,33.37Z"/></g></g></g></g></g></svg>